<svg id="Capa_8" data-name="Capa 8" xmlns="http://www.w3.org/2000/svg" viewBox="0 0 320.71 215.68"><title>iso_TKW</title><path d="M366.8,3355.14c0.21-3.41.3-6.83,0.69-10.22,0.27-2.39.94-4.74,1.43-7.11a37.91,37.91,0,0,1,3.33-9.32,35.73,35.73,0,0,1,18-17.35,41.36,41.36,0,0,1,18.55-3.63,45.23,45.23,0,0,1,24.59,8.19c6.27,4.37,11.06,10,15.4,16a103.77,103.77,0,0,1,9.23,15.78c2.56,5.35,4.91,10.8,7.26,16.24q2.58,6,4.92,12.06c2,5.25,3.9,10.55,5.9,15.81,1.78,4.69,3.58,9.37,5.49,14s4,9.44,6.09,14.15c0.39,0.89.9,1.73,1.26,2.62a1.31,1.31,0,0,1-.06,1c-4.25,6.95-8.91,13.62-15,19.25a52.06,52.06,0,0,1-17.32,10.56,46.2,46.2,0,0,1-19.75,2.68,48.56,48.56,0,0,1-17.59-4.7A63.91,63.91,0,0,1,400,3437a113.88,113.88,0,0,1-15.16-20.55,121.72,121.72,0,0,1-8.41-17c-2.07-5.29-3.8-10.71-5.45-16.13-0.93-3.06-1.45-6.24-2.09-9.38a98.51,98.51,0,0,1-1.92-15.1c-0.06-1.22,0-2.45,0-3.68h-0.2Z" transform="translate(-366.8 -3240.4)" fill="#fff"/><path d="M679.07,3396.3c-1.11,2.73-2.11,5.26-3.16,7.77a119.11,119.11,0,0,1-8.46,16.58,102,102,0,0,1-12.15,16.73A67.61,67.61,0,0,1,638,3450.94a39.78,39.78,0,0,1-15,4.74,61,61,0,0,1-7.3.36,42.23,42.23,0,0,1-15-3.26,46.86,46.86,0,0,1-9.9-5.41,64.89,64.89,0,0,1-12.52-12.1,99.94,99.94,0,0,1-9.36-14,210.62,210.62,0,0,1-9.5-19.5c-2.3-5.31-4.52-10.64-6.8-16-2.1-4.91-4.16-9.84-6.36-14.71-2.32-5.14-4.66-10.28-7.23-15.3-2.25-4.39-4.78-8.67-7.32-12.92-0.85-1.43-1-2.52,0-3.95,3.15-4.19,6-8.59,9.27-12.69s6.8-8.34,11.2-11.63a31.85,31.85,0,0,1,10.44-5.12,23.35,23.35,0,0,1,7.56-1.1,29.76,29.76,0,0,1,11.5,2.85,37.64,37.64,0,0,1,13.09,10.85,142.9,142.9,0,0,1,11.56,16.8,165.75,165.75,0,0,1,8.21,16.2c3,6.63,5.88,13.32,8.87,20,1.94,4.31,3.82,8.67,6.06,12.83a52.81,52.81,0,0,0,9.72,13.29,30.44,30.44,0,0,0,9.59,6.59,13.09,13.09,0,0,0,3.07.83c5.94,0.85,11.62.28,16.81-2.89a34.19,34.19,0,0,0,9.48-8.78,3.5,3.5,0,0,1,.34-0.4A2.86,2.86,0,0,1,679.07,3396.3Z" transform="translate(-366.8 -3240.4)" fill="#fff"/><path d="M489.09,3308.51a30,30,0,0,1,16.13,5.37,48.14,48.14,0,0,1,11,10.55c3,3.86,5.94,7.77,8.67,11.81a150,150,0,0,1,10.85,18.93c2,4.1,4,8.18,5.94,12.31q3.07,6.64,5.93,13.37c2.35,5.51,4.55,11.07,6.89,16.58,1.87,4.4,3.74,8.81,5.83,13.12,1.77,3.65,3.84,7.16,5.78,10.73a11.53,11.53,0,0,1,.85,1.54,1.63,1.63,0,0,1-.05,1.15,92,92,0,0,1-7,11.79,77.52,77.52,0,0,1-8.35,10.3,30.74,30.74,0,0,1-10.93,7.78,30.05,30.05,0,0,1-7.58,1.89,24.11,24.11,0,0,1-6.83-.05,31.55,31.55,0,0,1-14.23-6c-4.57-3.52-8.05-7.94-11.34-12.53a115.69,115.69,0,0,1-12.51-22.62c-2.51-5.95-4.9-11.94-7.23-18-1.77-4.56-3.31-9.2-5-13.78-1.16-3.1-2.43-6.16-3.68-9.23-1.37-3.37-2.74-6.74-4.18-10.08-1.65-3.83-3.29-7.66-5.09-11.43-2-4.13-4.12-8.2-6.22-12.28-0.54-1-1.18-2-1.79-3.05a1.28,1.28,0,0,1,.06-1.55,146.54,146.54,0,0,1,10.89-14.49c3.48-3.92,7.3-7.43,12.22-9.74A26.63,26.63,0,0,1,489.09,3308.51Z" transform="translate(-366.8 -3240.4)" fill="#fff"/><path d="M687.51,3353.13c-0.36,3.6-.7,7.2-1.09,10.8-0.25,2.32-.49,4.64-0.9,6.94-0.46,2.58-1.07,5.14-1.67,7.7a51.39,51.39,0,0,1-5.49,13.59,30.36,30.36,0,0,1-9.1,10.28,21.35,21.35,0,0,1-16,3.55,20.44,20.44,0,0,1-10.76-5.42,49.82,49.82,0,0,1-9.48-12.47,223.36,223.36,0,0,1-10.4-22q-4.65-10.76-10.1-21.16c-1.47-2.79-3.09-5.5-4.58-8.27a1.53,1.53,0,0,1,0-1.36q4.11-5.63,8.34-11.17a45.5,45.5,0,0,1,7.51-7.87,38.09,38.09,0,0,1,13-6.75,39.34,39.34,0,0,1,12.89-1.78c8.3,0.31,16,2.39,22.61,7.48a35.42,35.42,0,0,1,8.78,10.22,42.62,42.62,0,0,1,5.29,15.36A103.86,103.86,0,0,1,687.51,3353.13Z" transform="translate(-366.8 -3240.4)" fill="#fff"/><path d="M555,3264.6c-0.16,13.36-10.5,24.11-25.32,24.11-13.78,0-24.81-10.31-24.81-24.09,0-13.38,10.91-24.18,25.06-24.22C544.51,3240.36,554.8,3251.57,555,3264.6Z" transform="translate(-366.8 -3240.4)" fill="#fff"/><path d="M405.45,3288.56c-13.92.12-25.18-10.93-24.74-24.43,0.42-12.76,10.67-23.77,25.54-23.66,14.3,0.11,24.46,10.33,24.51,24.1S419.48,3288.77,405.45,3288.56Z" transform="translate(-366.8 -3240.4)" fill="#fff"/><path d="M651.29,3288.57c-12.69.17-24.66-10.25-24.72-23.8s11.09-24.28,24.88-24.3,24.48,10.24,24.88,23.54C676.74,3277.52,665,3288.73,651.29,3288.57Z" transform="translate(-366.8 -3240.4)" fill="#fff"/></svg>