<svg id="Capa_3" data-name="Capa 3" xmlns="http://www.w3.org/2000/svg" viewBox="0 0 205.6 51.26"><title>kgroup</title><path d="M804.21,373.26a39.64,39.64,0,0,1,12.35,5.43A37.38,37.38,0,0,0,831,356v0H820a26.52,26.52,0,0,1-15.76,17.27" transform="translate(-625.4 -355.49)" fill="#519296"/><path d="M813.93,380.47a36.38,36.38,0,0,0-18.14-5.42v-19H785.63v48.86h10.16v-19a26.37,26.37,0,0,1,24.17,19h11v0a37.4,37.4,0,0,0-17.07-24.45" transform="translate(-625.4 -355.49)" fill="#fff"/><path d="M670.71,356.08v0h-11A26.49,26.49,0,0,1,644,373.31a39.6,39.6,0,0,1,12.33,5.43,37.35,37.35,0,0,0,14.42-22.65" transform="translate(-625.4 -355.49)" fill="#a9c1d3"/><path d="M653.66,380.51a36.34,36.34,0,0,0-18.12-5.41v-19H625.4v48.8h10.15V386a26.34,26.34,0,0,1,24.15,19h11v0a37.36,37.36,0,0,0-17-24.42" transform="translate(-625.4 -355.49)" fill="#fff"/><path d="M697.22,390.46a1.43,1.43,0,0,1-2-.38,27.08,27.08,0,0,1-4-17.15,25.21,25.21,0,0,1,8.66-17.1,1.44,1.44,0,0,1,2.1.25l0.61,0.85a1.43,1.43,0,0,1-.23,1.93,21.3,21.3,0,0,0-7.24,14.44,23.18,23.18,0,0,0,3.37,14.59,1.44,1.44,0,0,1-.36,1.94Z" transform="translate(-625.4 -355.49)" fill="#fff"/><path d="M698.58,406.16L698,405.3a1.43,1.43,0,0,1,.23-1.93,21.31,21.31,0,0,0,7.24-14.44,23.18,23.18,0,0,0-3.37-14.59,1.44,1.44,0,0,1,.36-1.94l0.85-.62a1.43,1.43,0,0,1,2,.38,27.09,27.09,0,0,1,4,17.15,25.21,25.21,0,0,1-8.66,17.1,1.44,1.44,0,0,1-2.1-.25" transform="translate(-625.4 -355.49)" fill="#fff"/><path d="M744.63,399.79c-4-1.35-6.13-4.25-6.79-8.32a29.81,29.81,0,0,1,.8-11.35c0.29-1.32.3-1.32,1.63-1l6.47,1.3a0.72,0.72,0,0,0,.2-0.14c-0.78-.32-1.5-0.65-2.24-0.92q-2.39-.87-4.8-1.69a0.53,0.53,0,0,1-.43-0.78c1.13-3.85,2.51-7.62,3.89-11.38,0.15-.4.35-0.45,0.72-0.29,1.22,0.51,2.51.85,3.71,1.43a1.71,1.71,0,0,0,.43.06,1.83,1.83,0,0,0-.82-0.84L744.47,364a0.45,0.45,0,0,1-.28-0.64,29.73,29.73,0,0,1,3-6,2.13,2.13,0,0,1,2.25-1,9.79,9.79,0,0,1,7.06,4.73,26.28,26.28,0,0,1,3.53,9.41c0.09,0.44-.14.42-0.42,0.46l-6.87,1a0.35,0.35,0,0,0-.27.14c2.38,0,4.76,0,7.13,0a0.68,0.68,0,0,1,.83.71,69.07,69.07,0,0,1,.41,14.45,0.71,0.71,0,0,1-.7.75c-2.77.57-5.53,1.16-8.28,1.87l5.7-.24c0.81,0,1.62-.06,2.44-0.11,0.39,0,.59,0,0.52.52a26.44,26.44,0,0,1-1.08,4.89c-1,2.92-3.33,4.41-6.15,5.25a17.3,17.3,0,0,1-6.22.59,2.15,2.15,0,0,1,0-.37,84.61,84.61,0,0,0,2.1-10.29,105.18,105.18,0,0,0,1-10.76c0.06-1.73.2-3.48,0.1-5.21-0.17-3.06-.2-6.12-0.47-9.18-0.23-2.6-.56-5.18-0.9-7.76,0,1.66.23,3.31,0.3,5,0.12,2.77.27,5.53,0.14,8.31-0.15,3.06-.29,6.12-0.63,9.17s-0.83,6.12-1.42,9.15A112.71,112.71,0,0,1,744.63,399.79Z" transform="translate(-625.4 -355.49)" fill="#fff" fill-rule="evenodd"/><path d="M740.79,369.16l-1.58,4.8-0.68,2a1,1,0,0,1-.15-0.16,102.06,102.06,0,0,0-7.08-10.21,2.46,2.46,0,0,0-1.15-1.17,0.27,0.27,0,0,0-.15-0.29,0.28,0.28,0,0,0-.3-0.3,0.17,0.17,0,0,0,0-.05h0l0.06,0.07a0.28,0.28,0,0,0,.29.3,0.29,0.29,0,0,0,.15.29,0.81,0.81,0,0,0,.24.45,71.88,71.88,0,0,1,5.62,8.7,43.82,43.82,0,0,0,2.1,3.86c-0.22,1.36-.22,1.36-1.51,1.65-1.73.4-3.46,0.78-5.17,1.21-0.48.12-.69,0.06-0.84-0.45-0.86-3-1.54-6.1-2.2-9.18a0.47,0.47,0,0,1,.45-0.69,30.75,30.75,0,0,0,3.84-1c-1.22,0-2.45-.06-3.66,0a0.91,0.91,0,0,1-1.15-1,27.6,27.6,0,0,1-.38-4.7,1.79,1.79,0,0,1,1.18-1.75,8.14,8.14,0,0,1,7.19.37,20.79,20.79,0,0,1,5.69,4.29,1.07,1.07,0,0,1-.28,1.47c-0.53.48-1.09,0.93-1.63,1.39a2.62,2.62,0,0,0-.76.77c0.78,0,1.21-.72,1.91-0.74Zm-11.42-5.78,0,0,0,0,0.06,0.06Z" transform="translate(-625.4 -355.49)" fill="#fff" fill-rule="evenodd"/><path d="M744.63,399.79a112.71,112.71,0,0,0,2.74-11c0.59-3,1.07-6.08,1.42-9.15s0.49-6.11.63-9.17c0.13-2.78,0-5.54-.14-8.31-0.07-1.66-.3-3.3-0.3-5,0.34,2.58.67,5.16,0.9,7.76,0.27,3.06.3,6.12,0.47,9.18,0.1,1.73,0,3.47-.1,5.21a105.18,105.18,0,0,1-1,10.76,84.61,84.61,0,0,1-2.1,10.29,2.15,2.15,0,0,0,0,.37,18.79,18.79,0,0,0-.92,2.62c-0.15.39-.3,0.78-0.41,1.18s-0.35.45-.69,0.22a13.44,13.44,0,0,0-1.24-.79,0.58,0.58,0,0,1-.28-0.84C744,402.05,744.28,400.92,744.63,399.79Z" transform="translate(-625.4 -355.49)" fill="#e8e8e8" fill-rule="evenodd"/><path d="M737.73,379c-1,4.13-1.69,8.11-1.17,12.36a12,12,0,0,1-2.17-2.62,30,30,0,0,1-3.09-6.68c-0.09-.25-0.25-0.5.15-0.66Z" transform="translate(-625.4 -355.49)" fill="#fff" fill-rule="evenodd"/><path d="M730.15,364.43a2.46,2.46,0,0,1,1.15,1.17,102.06,102.06,0,0,1,7.08,10.21,1,1,0,0,0,.15.16,4.86,4.86,0,0,1-.44,1.47,43.82,43.82,0,0,1-2.1-3.86,71.88,71.88,0,0,0-5.62-8.7,0.81,0.81,0,0,1-.24-0.45h0Z" transform="translate(-625.4 -355.49)" fill="#e8e8e8" fill-rule="evenodd"/><path d="M740.77,369.14l0-.11,0.07,0-0.09.09Z" transform="translate(-625.4 -355.49)" fill="#299244" fill-rule="evenodd"/><path d="M729.7,363.84a0.28,0.28,0,0,1,.3.3h0a0.28,0.28,0,0,1-.29-0.3h0Z" transform="translate(-625.4 -355.49)" fill="#8ac141" fill-rule="evenodd"/><path d="M730,364.13a0.27,0.27,0,0,1,.15.29h0a0.29,0.29,0,0,1-.15-0.29h0Z" transform="translate(-625.4 -355.49)" fill="#8ac141" fill-rule="evenodd"/><path d="M729.38,363.38l0,0-0.06-.06,0,0Z" transform="translate(-625.4 -355.49)" fill="#8ac141" fill-rule="evenodd"/><path d="M729.7,363.84l-0.06-.07h0a0.17,0.17,0,0,1,0,.05h0Z" transform="translate(-625.4 -355.49)" fill="#8ac141" fill-rule="evenodd"/></svg>