<svg id="Capa_8" data-name="Capa 8" xmlns="http://www.w3.org/2000/svg" viewBox="0 0 980.84 855.2"><title>logo_TKF</title><path d="M468.26,2683.26H391.13V2880.4H369.79V2683.26H292.66V2664.4h175.6v18.86Z" transform="translate(-292.66 -2664.4)" fill="#fff"/><path d="M621.26,2880.4H601v-85.55q0-25.87-9.24-39t-26.52-13.08a48.92,48.92,0,0,0-22.49,5.72,65,65,0,0,0-19.66,15.56A58.22,58.22,0,0,0,511,2786.55v93.85H490.76v-216H511v97.43a71.12,71.12,0,0,1,25.77-27.21,66.34,66.34,0,0,1,35.31-10.15q13.41,0,22.79,4.71a38.28,38.28,0,0,1,15.2,13.68,63.93,63.93,0,0,1,8.49,20.89,123.07,123.07,0,0,1,2.68,26.92v89.74Z" transform="translate(-292.66 -2664.4)" fill="#fff"/><path d="M731.06,2880.4a76,76,0,0,1-56.1-24.06,81.77,81.77,0,0,1-16.35-25.85,83.83,83.83,0,0,1-5.85-31.39,81,81,0,0,1,10-39.9,77.58,77.58,0,0,1,27.75-29q17.7-10.87,40.2-10.87,23.1,0,40.35,11a79.16,79.16,0,0,1,27.15,29.05,80.67,80.67,0,0,1,9.9,39.48v4.62a15,15,0,0,1-.3,3.43H674.06a67.54,67.54,0,0,0,9.45,29.7,60.11,60.11,0,0,0,20.7,20.59A53.17,53.17,0,0,0,732,2864.8a57.43,57.43,0,0,0,29-7.8q13.65-7.8,19-20.4l17.7,4.8a58.52,58.52,0,0,1-14.7,20.1,70.71,70.71,0,0,1-23.25,14A81.76,81.76,0,0,1,731.06,2880.4Zm-57.6-88.2H789q-1.2-16.92-9.15-29.69a57.87,57.87,0,0,0-20.7-20,55.64,55.64,0,0,0-28-7.28,54.82,54.82,0,0,0-27.9,7.28,57.86,57.86,0,0,0-20.55,20.18A64.24,64.24,0,0,0,673.46,2792.2Z" transform="translate(-292.66 -2664.4)" fill="#fff"/><path d="M369.26,3168.4V2954.78h21.95v124.13L513.8,2954.48h24.14l-90.92,94,95.63,119.92H517.88l-85-107.26-41.7,41.58v65.68H369.26Z" transform="translate(-292.66 -2664.4)" fill="#fff"/><path d="M548.93,3125.92q0-15.26,8.78-26.33t24.3-17.14q15.52-6.07,35.9-6.07a171.2,171.2,0,0,1,24.77,1.88,111.19,111.19,0,0,1,22.89,5.64v-13.76q0-20.56-12.23-32.72t-33.86-12.15a71.86,71.86,0,0,0-25.87,4.86,130.21,130.21,0,0,0-26.49,14.27l-8.15-15a137.72,137.72,0,0,1,31.35-16.46,92.62,92.62,0,0,1,31.35-5.49q30.1,0,47.66,17.14t17.56,47.36V3147q0,4.37,1.88,6.39t6,2.34v16.93q-3.45.31-6,.63a11.21,11.21,0,0,1-3.76,0q-7.84-.31-11.91-5a16.61,16.61,0,0,1-4.39-10l-0.31-11.92a71.91,71.91,0,0,1-28.53,21.79,88.44,88.44,0,0,1-35.74,7.68,59.89,59.89,0,0,1-28.37-6.7A50.27,50.27,0,0,1,556,3151,46.64,46.64,0,0,1,548.93,3125.92Zm109.42,12.42a42.76,42.76,0,0,0,5.33-8.39,17.28,17.28,0,0,0,1.88-7.15V3099.2a132,132,0,0,0-22.1-6.21,123.19,123.19,0,0,0-23-2.18q-22.89,0-37,9t-14.11,24.54a32.62,32.62,0,0,0,4.7,16.94,36.32,36.32,0,0,0,13.8,13.05q9.09,5.13,21.32,5.12a70,70,0,0,0,28.69-5.9Q651.14,3147.67,658.36,3138.34Z" transform="translate(-292.66 -2664.4)" fill="#fff"/><path d="M733,2975.11v-22.35H754.3v22.35H733Zm0,197.53V3009.29H754.3v163.35H733Z" transform="translate(-292.66 -2664.4)" fill="#fff"/><path d="M787.53,3158.22L897,3025.91H790v-16H921.09v14.42L812.3,3156.65H920.78v16H787.53v-14.42Z" transform="translate(-292.66 -2664.4)" fill="#fff"/><path d="M1022.68,3175.78A79.46,79.46,0,0,1,964,3150.63a85.46,85.46,0,0,1-17.09-27,87.6,87.6,0,0,1-6.11-32.8,84.67,84.67,0,0,1,10.5-41.7,81.08,81.08,0,0,1,29-30.34q18.5-11.36,42-11.36,24.14,0,42.17,11.52a82.73,82.73,0,0,1,28.38,30.36,84.31,84.31,0,0,1,10.35,41.26v4.83a15.78,15.78,0,0,1-.31,3.58H963.11a70.57,70.57,0,0,0,9.88,31,62.8,62.8,0,0,0,21.63,21.52,55.57,55.57,0,0,0,29,8,60,60,0,0,0,30.26-8.15q14.26-8.15,19.91-21.32l18.5,5a61.17,61.17,0,0,1-15.36,21,73.89,73.89,0,0,1-24.3,14.58A85.44,85.44,0,0,1,1022.68,3175.78Zm-60.2-92.18h120.71q-1.26-17.68-9.56-31a60.48,60.48,0,0,0-21.63-20.94,58.16,58.16,0,0,0-29.32-7.6,57.3,57.3,0,0,0-29.16,7.6A60.45,60.45,0,0,0,972,3052.72,67.13,67.13,0,0,0,962.48,3083.6Z" transform="translate(-292.66 -2664.4)" fill="#fff"/><path d="M1273.5,3172.64h-21.32V3082q0-28.66-8.46-41.9t-26.65-13.24a55.25,55.25,0,0,0-24.77,6.06,70.24,70.24,0,0,0-21.48,16.49,63.09,63.09,0,0,0-13.33,23.79v99.45h-21.32V3009.92h19.44V3047a73,73,0,0,1,17.24-20.73A81.58,81.58,0,0,1,1197,3012.4a79.87,79.87,0,0,1,27.9-5q13.48,0,22.89,5a38.59,38.59,0,0,1,15,14.19,66.16,66.16,0,0,1,8.15,22.13,152.26,152.26,0,0,1,2.51,28.84v95.09Z" transform="translate(-292.66 -2664.4)" fill="#fff"/><path d="M366.8,3355.14c0.21-3.41.3-6.83,0.69-10.22,0.27-2.39.94-4.74,1.43-7.11a37.91,37.91,0,0,1,3.33-9.32,35.73,35.73,0,0,1,18-17.35,41.36,41.36,0,0,1,18.55-3.63,45.23,45.23,0,0,1,24.59,8.19c6.27,4.37,11.06,10,15.4,16a103.77,103.77,0,0,1,9.23,15.78c2.56,5.35,4.91,10.8,7.26,16.24q2.58,6,4.92,12.06c2,5.25,3.9,10.55,5.9,15.81,1.78,4.69,3.58,9.37,5.49,14s4,9.44,6.09,14.15c0.39,0.89.9,1.73,1.26,2.62a1.31,1.31,0,0,1-.06,1c-4.25,6.95-8.91,13.62-15,19.25a52.06,52.06,0,0,1-17.32,10.56,46.2,46.2,0,0,1-19.75,2.68,48.56,48.56,0,0,1-17.59-4.7A63.91,63.91,0,0,1,400,3437a113.88,113.88,0,0,1-15.16-20.55,121.72,121.72,0,0,1-8.41-17c-2.07-5.29-3.8-10.71-5.45-16.13-0.93-3.06-1.45-6.24-2.09-9.38a98.51,98.51,0,0,1-1.92-15.1c-0.06-1.22,0-2.45,0-3.68h-0.2Z" transform="translate(-292.66 -2664.4)" fill="#fff"/><path d="M679.07,3396.3c-1.11,2.73-2.11,5.26-3.16,7.77a119.11,119.11,0,0,1-8.46,16.58,102,102,0,0,1-12.15,16.73A67.61,67.61,0,0,1,638,3450.94a39.78,39.78,0,0,1-15,4.74,61,61,0,0,1-7.3.36,42.23,42.23,0,0,1-15-3.26,46.86,46.86,0,0,1-9.9-5.41,64.89,64.89,0,0,1-12.52-12.1,99.94,99.94,0,0,1-9.36-14,210.62,210.62,0,0,1-9.5-19.5c-2.3-5.31-4.52-10.64-6.8-16-2.1-4.91-4.16-9.84-6.36-14.71-2.32-5.14-4.66-10.28-7.23-15.3-2.25-4.39-4.78-8.67-7.32-12.92-0.85-1.43-1-2.52,0-3.95,3.15-4.19,6-8.59,9.27-12.69s6.8-8.34,11.2-11.63a31.85,31.85,0,0,1,10.44-5.12,23.35,23.35,0,0,1,7.56-1.1,29.76,29.76,0,0,1,11.5,2.85,37.64,37.64,0,0,1,13.09,10.85,142.9,142.9,0,0,1,11.56,16.8,165.75,165.75,0,0,1,8.21,16.2c3,6.63,5.88,13.32,8.87,20,1.94,4.31,3.82,8.67,6.06,12.83a52.81,52.81,0,0,0,9.72,13.29,30.44,30.44,0,0,0,9.59,6.59,13.09,13.09,0,0,0,3.07.83c5.94,0.85,11.62.28,16.81-2.89a34.19,34.19,0,0,0,9.48-8.78,3.5,3.5,0,0,1,.34-0.4A2.86,2.86,0,0,1,679.07,3396.3Z" transform="translate(-292.66 -2664.4)" fill="#fff"/><path d="M489.09,3308.51a30,30,0,0,1,16.13,5.37,48.14,48.14,0,0,1,11,10.55c3,3.86,5.94,7.77,8.67,11.81a150,150,0,0,1,10.85,18.93c2,4.1,4,8.18,5.94,12.31q3.07,6.64,5.93,13.37c2.35,5.51,4.55,11.07,6.89,16.58,1.87,4.4,3.74,8.81,5.83,13.12,1.77,3.65,3.84,7.16,5.78,10.73a11.53,11.53,0,0,1,.85,1.54,1.63,1.63,0,0,1-.05,1.15,92,92,0,0,1-7,11.79,77.52,77.52,0,0,1-8.35,10.3,30.74,30.74,0,0,1-10.93,7.78,30.05,30.05,0,0,1-7.58,1.89,24.11,24.11,0,0,1-6.83-.05,31.55,31.55,0,0,1-14.23-6c-4.57-3.52-8.05-7.94-11.34-12.53a115.69,115.69,0,0,1-12.51-22.62c-2.51-5.95-4.9-11.94-7.23-18-1.77-4.56-3.31-9.2-5-13.78-1.16-3.1-2.43-6.16-3.68-9.23-1.37-3.37-2.74-6.74-4.18-10.08-1.65-3.83-3.29-7.66-5.09-11.43-2-4.13-4.12-8.2-6.22-12.28-0.54-1-1.18-2-1.79-3.05a1.28,1.28,0,0,1,.06-1.55,146.54,146.54,0,0,1,10.89-14.49c3.48-3.92,7.3-7.43,12.22-9.74A26.63,26.63,0,0,1,489.09,3308.51Z" transform="translate(-292.66 -2664.4)" fill="#fff"/><path d="M687.51,3353.13c-0.36,3.6-.7,7.2-1.09,10.8-0.25,2.32-.49,4.64-0.9,6.94-0.46,2.58-1.07,5.14-1.67,7.7a51.39,51.39,0,0,1-5.49,13.59,30.36,30.36,0,0,1-9.1,10.28,21.35,21.35,0,0,1-16,3.55,20.44,20.44,0,0,1-10.76-5.42,49.82,49.82,0,0,1-9.48-12.47,223.36,223.36,0,0,1-10.4-22q-4.65-10.76-10.1-21.16c-1.47-2.79-3.09-5.5-4.58-8.27a1.53,1.53,0,0,1,0-1.36q4.11-5.63,8.34-11.17a45.5,45.5,0,0,1,7.51-7.87,38.09,38.09,0,0,1,13-6.75,39.34,39.34,0,0,1,12.89-1.78c8.3,0.31,16,2.39,22.61,7.48a35.42,35.42,0,0,1,8.78,10.22,42.62,42.62,0,0,1,5.29,15.36A103.86,103.86,0,0,1,687.51,3353.13Z" transform="translate(-292.66 -2664.4)" fill="#fff"/><path d="M555,3264.6c-0.16,13.36-10.5,24.11-25.32,24.11-13.78,0-24.81-10.31-24.81-24.09,0-13.38,10.91-24.18,25.06-24.22C544.51,3240.36,554.8,3251.57,555,3264.6Z" transform="translate(-292.66 -2664.4)" fill="#fff"/><path d="M405.45,3288.56c-13.92.12-25.18-10.93-24.74-24.43,0.42-12.76,10.67-23.77,25.54-23.66,14.3,0.11,24.46,10.33,24.51,24.1S419.48,3288.77,405.45,3288.56Z" transform="translate(-292.66 -2664.4)" fill="#fff"/><path d="M651.29,3288.57c-12.69.17-24.66-10.25-24.72-23.8s11.09-24.28,24.88-24.3,24.48,10.24,24.88,23.54C676.74,3277.52,665,3288.73,651.29,3288.57Z" transform="translate(-292.66 -2664.4)" fill="#fff"/><path d="M719.52,3415.55a36.57,36.57,0,0,1,7.82-23.45q7.81-9.85,21.64-15.26t32-5.41A152.41,152.41,0,0,1,803,3373.1a99,99,0,0,1,20.38,5v-12.25q0-18.31-10.89-29.14t-30.16-10.82a64,64,0,0,0-23,4.33,116,116,0,0,0-23.59,12.7l-7.26-13.4a122.66,122.66,0,0,1,27.92-14.66A82.52,82.52,0,0,1,784.3,3310q26.81,0,42.44,15.26t15.64,42.17v66.86q0,3.89,1.68,5.69t5.3,2.08v15.08q-3.08.27-5.3,0.56a10,10,0,0,1-3.35,0q-7-.28-10.61-4.47a14.79,14.79,0,0,1-3.91-8.93l-0.28-10.61a64,64,0,0,1-25.41,19.41,78.76,78.76,0,0,1-31.83,6.84,53.33,53.33,0,0,1-25.27-6,44.77,44.77,0,0,1-17.59-16.09A41.54,41.54,0,0,1,719.52,3415.55ZM817,3426.6a38.1,38.1,0,0,0,4.75-7.47,15.39,15.39,0,0,0,1.68-6.37v-21a117.6,117.6,0,0,0-19.68-5.53,109.7,109.7,0,0,0-20.52-1.94q-20.39,0-32.95,8t-12.56,21.86a29,29,0,0,0,4.19,15.08,32.34,32.34,0,0,0,12.29,11.62,38,38,0,0,0,19,4.56,62.32,62.32,0,0,0,25.55-5.26Q810.54,3434.91,817,3426.6Z" transform="translate(-292.66 -2664.4)" fill="#fff"/><path d="M887.33,3501.82q3.91,0.27,7.54.42a16.36,16.36,0,0,0,5.3-.42,11.47,11.47,0,0,0,6.42-3.9q3.07-3.34,7.26-12.8t11.73-27.82L862.2,3312.23h20.1l53.33,125.59,49.14-125.59h19l-75.39,187.13a32.76,32.76,0,0,1-5.86,9.89,27.84,27.84,0,0,1-9.63,7.24,36.59,36.59,0,0,1-14.1,2.92,32.09,32.09,0,0,1-5.17.14q-2.66-.14-6.28-0.7v-17Z" transform="translate(-292.66 -2664.4)" fill="#fff"/></svg>